<?xml version="1.0" encoding="UTF-8"?><svg id="Layer_1" xmlns="http://www.w3.org/2000/svg" xmlns:xlink="http://www.w3.org/1999/xlink" viewBox="0 0 150 150"><defs><style>.cls-1{clip-path:url(#clippath-1);}.cls-2{clip-path:url(#clippath-3);}.cls-3{clip-path:url(#clippath-2);}.cls-4{fill-rule:evenodd;}.cls-5{fill:#356606;}.cls-6{clip-path:url(#clippath);}</style><clipPath id="clippath"><path d="M14.25,79.71c-.08,0-.16,0-.23,0h0s-.29,0-.29,0c-.2,0-.39.01-.59.02-.04.36-.1.97-.13,1.57h0c-.01.26-.02.5-.02.73,0,.29,0,.59.02.88h0v.12c0,.2.02.4.03.59h0v.03c0,.13.02.26.03.39h0v.05c.02.22.04.44.06.66h0v.02c0,.08.02.16.03.25h0v.04c0,.08.02.15.03.23h0v.03c0,.08.02.15.03.23h0c.03.21.06.41.09.62h0v.02c.01.06.02.12.03.18h0s.03.16.03.16h0v.03c0,.06.02.11.03.16h0c0,.06.02.11.03.16h0c.02.12.04.22.06.33h0c.02.1.04.2.06.29h0s.02.09.03.13h0v.03c.03.13.07.26.1.4h0c.02.09.04.18.06.26h0c.02.08.04.15.06.23h0s.03.13.03.13h0s.02.06.03.1h0v.03l.03.11h0s.02.07.03.1h0v.02c.05.18.11.36.16.54l.03.1h0s.03.1.03.1h0s.03.1.03.1h0s.03.1.03.1h0s.02.07.03.1h0s.02.07.03.1h0c.08.24.17.48.26.72h0c.02.06.04.11.06.16h0c.02.06.04.11.06.16h0v.02s.04.1.06.15h0c.07.2.15.38.23.55h0c.04.1.08.2.13.29h0s.03.07.03.07h0v.02c.04.09.09.18.13.28h0s.03.06.03.06h0c.14.31.29.62.45.92h0s.03.06.03.06h0s.03.07.03.07h0s.03.07.03.07c.07.12.13.24.2.36h0c.04.08.08.15.13.23h0c.04.08.08.15.13.23h0c.03.06.06.11.1.16h0c.12.2.24.4.36.59h0s.04.07.06.1h0c.07.13.15.24.23.36l.06.1c.1.14.19.28.29.42h0s.06.1.06.1h0s.06.09.09.13h0s.04.07.06.1h0s.06.09.09.13h0c.13.18.26.35.39.52h0c.04.06.08.11.12.16h0c.04.06.08.11.13.16h0c.15.19.3.38.45.56h0c.05.07.11.13.16.2h0l.03.03h0c.08.09.15.17.22.26h0c.11.12.22.24.33.36h0s.03.04.03.04h0s.03.03.03.03h0c.36.4.74.78,1.13,1.14h0s.03.03.03.03h0s.03.03.03.03h0c.13.12.26.24.39.36.07.07.15.13.22.2h0s.03.03.03.03h0c.08.07.15.13.23.19h0c.13.11.26.22.39.33h0c.05.05.11.09.16.13h0c.06.04.11.09.16.13h0s.12.1.12.1h0c.05.05.11.09.16.13.04.03.09.07.13.1h0c.16.12.32.24.49.36h0s.06.04.08.07h.01s.09.07.13.1h0l.09.07h0c.22.16.45.31.68.46h0s.06.05.09.07h0c.09.06.17.11.26.16h0c.21.13.43.27.65.39h0c.07.05.15.09.22.13h0c.07.04.15.09.23.13.14.08.28.15.42.23h0l.06.03h0s.06.03.06.03h0s.05.03.05.03h.01s.05.03.05.03h.01s.05.03.05.03h.02c.21.12.43.22.65.33.12.06.23.11.35.16h0s.06.03.06.03h0c.07.04.15.07.22.1h0c.2.09.4.18.61.26h.01c.05.02.1.04.15.07h.01c.05.02.1.04.15.06h.01c.05.03.11.05.16.07h0c.21.08.41.15.62.23h0s.09.03.09.03h0s.09.03.09.03h0s.05.02.08.03h.02s.08.03.08.03h.02s.06.02.08.03h.01s.09.03.09.03h.01s.09.03.09.03h0s.1.03.1.03h0s.07.02.1.03c.14.05.29.09.44.13h.02s.06.02.09.03h0s.11.03.11.03h.02c.07.03.15.05.22.06h0c.25.07.51.14.76.2h.02s.08.02.12.03h.01c.09.03.19.04.28.06h0c.21.05.42.09.63.13h.02c.05.01.1.02.15.03h.01c.06.01.11.02.17.03h.03c.26.05.53.09.8.13h.01c.07.01.15.02.22.03h.04c.07.01.15.02.22.03h.04c.08.01.17.02.25.03h.02c.22.03.44.05.66.07h.06c.13.01.27.02.4.03h.06c.19.01.38.02.57.03h.12c.3.02.59.02.89.02.19,0,.38,0,.57,0v-.02h.47c.11,0,.21,0,.31-.01v-.02h.29c.14-.01.29-.02.43-.03h0c.09,0,.17-.01.26-.02h0s.1,0,.1,0l.19-.02h0s.12-.01.12-.01l.14-.02v-.02h.26v-.03h.13l.13-.02v-.02h.11c.06,0,.12-.02.18-.03h0s.04,0,.04,0c.07,0,.14-.02.21-.03.02,0,.03-.01.04-.02-.9.12-1.82.2-2.75.2-8.73,0-16.19-4.75-19.62-12.95-1.15-2.37-1.86-5.99-1.86-8.82,0-1.4.17-3.17.48-4.48h0c0-.05,0-.09-.01-.13h-.01v-.06s-.03-.09-.06-.14h0v-.02s-.04-.06-.06-.08h0s-.06-.07-.09-.1h0s-.06-.05-.09-.07h-.01s-.08-.05-.12-.07h0s-.06-.02-.09-.03h0s-.07-.01-.1-.02h-.08s-.01,0-.01,0h0c-.08-.01-.15-.02-.23-.03h-.09c-.06-.02-.12-.03-.18-.03h-.15v-.02l-.17-.02h-.13c-.08-.02-.16-.03-.25-.03h-.08c-.13-.02-.26-.03-.4-.03h-.13c-.22-.02-.44-.03-.66-.03h-.38s-.1,0-.15,0h-.31Z"/></clipPath><clipPath id="clippath-1"><path d="M43.14,88.29c.74,1.31,1.17,2.83,1.17,4.46,0,4.14-2.74,7.61-6.42,8.53h.09s.01-.01.01-.01c.08,0,.17-.02.25-.03h0s.02,0,.02,0c.43-.06.82-.12,1.19-.19h0s0,0,0,0l.16-.03h0s0,0,0,0c.21-.04.4-.08.58-.13h0s0,0,0,0c.72-.17,1.19-.33,1.27-.36.06-.02.11-.04.16-.07h0s0,0,0,0l.06-.02h0s.02,0,.02,0c.05-.02.1-.04.14-.06h0s0,0,0,0l.06-.03h0s.01,0,.01,0l.05-.03h0s.01,0,.01,0c.11-.05.21-.11.31-.16h0s.01,0,.01,0l.05-.03h0s0,0,0,0c.05-.03.11-.06.16-.09h0s.01,0,.01,0l.05-.03h0s0,0,0,0c.05-.03.11-.06.16-.1h0s0,0,0,0c.03-.02.06-.04.1-.06h0s0,0,0,0c.03-.02.06-.04.09-.06h0s0,0,0,0l.09-.06h0s0,0,0,0c.04-.03.09-.06.13-.09h0s0,0,0,0c.08-.06.17-.13.25-.19h0s0,0,0,0c.07-.05.13-.11.19-.16h0s0,0,0,0l.03-.03h0s0,0,0,0c.08-.08.17-.15.25-.23l.03-.03h0s0,0,0,0l.03-.03h0s0,0,0,0l.03-.03h0s0,0,0,0l.03-.03h0s0,0,0,0l.03-.03h0s0,0,0,0l.03-.03h0s0,0,0,0l.03-.03h0s0,0,0,0l.03-.03h0s0,0,0,0l.03-.03c.09-.1.18-.19.26-.29h0s0,0,0,0l.03-.03h0s0,0,0,0c.06-.07.11-.13.16-.2h0s0,0,0,0c.1-.13.2-.26.29-.39h0s0,0,0,0c.09-.13.18-.26.26-.39h0s0,0,0,0c.03-.05.06-.09.08-.14.01-.05.03-.1.04-.15h0s0,0,0,0c.01-.04.02-.08.03-.11h0s0-.01,0-.01l.03-.11v-.02h0c.02-.09.04-.17.06-.26h0c.01-.05.02-.1.03-.16h0s0,0,0,0c0-.05.02-.11.03-.16.01-.07.02-.13.03-.19h0s0,0,0,0c.01-.07.02-.15.03-.22h0s0,0,0,0c.01-.09.02-.18.03-.27v-.02h0c.01-.13.02-.27.03-.4v-.13h0c0-.1,0-.2,0-.3v-.1c0-.07,0-.15,0-.22h0v-.23c0-.14-.02-.28-.03-.42h0c0-.08-.02-.15-.02-.23h0v-.06c0-.06-.02-.11-.02-.17h0v-.05c0-.06-.02-.12-.03-.18h0v-.02c-.03-.15-.06-.29-.09-.43h-.01v-.04l-.02-.09h-.01v-.04l-.02-.09h-.01v-.04l-.03-.1h0v-.03l-.03-.1h0c-.03-.1-.06-.2-.09-.29h0v-.03l-.02-.07h0v-.02l-.03-.08h0v-.02l-.03-.08h0c-.02-.06-.04-.11-.06-.16h0c-.04-.12-.08-.22-.13-.33h0s-.03-.07-.03-.07h0s-.02-.06-.02-.06h0v-.02l-.02-.05h0v-.02l-.02-.05h-.01v-.02c-.07-.15-.15-.29-.22-.43h0s-.03-.07-.03-.07l-.06-.1h0v-.02l-.03-.05h0s-.04-.07-.06-.1h-.01v-.02l-.03-.05h0s-.06-.1-.06-.1h0c-.06-.11-.13-.2-.19-.29h0s-.06-.1-.06-.1h0s-.06-.09-.09-.13h0s-.06-.09-.09-.13h0c-.08-.12-.17-.22-.26-.33h0l-.03-.03h0s-.02-.03-.02-.03h0c-.07-.09-.15-.18-.23-.26h0l-.03-.03h0s-.03-.03-.03-.03h0s-.06-.06-.09-.1h0Z"/></clipPath><clipPath id="clippath-2"><path d="M34.54,79.67h0s-.1,0-.1,0c-.17,0-.35,0-.52.02h0s-.23.01-.23.01c-.12,0-.24.02-.35.03-.08,0-.15.02-.23.03h0s-.05,0-.05,0c-.05,0-.1.01-.15.02h0s-.08.01-.08.01c-.04,0-.08.01-.12.02h0s-.08.01-.08.01c-.05,0-.1.01-.15.02h0s-.04,0-.04,0c-.05.01-.1.02-.15.03h0s-.01,0-.01,0c-.05.01-.1.02-.15.03h0s-.08.02-.13.03h0s-.02,0-.02,0c-.04,0-.07.02-.11.03h0s-.03,0-.03,0c-.04,0-.07.02-.1.03h0s-.03,0-.03,0l-.07.02h0s-.06.01-.06.01l-.07.02h0s-.04.01-.04.01l-.09.02h0s-.03,0-.03,0l-.1.03h0s0,0,0,0c-.16.05-.32.1-.48.16h0s-.02,0-.02,0c-.03,0-.05.02-.08.03h0s-.01,0-.01,0l-.05.02h0s-.04.01-.04.01l-.06.02h0s-.03,0-.03,0l-.07.02h0s-.01,0-.01,0l-.05.02h0s-.03.01-.03.01l-.07.03h0s-.02,0-.02,0c-.05.02-.1.04-.15.06h0s-.01,0-.01,0c-.07.03-.14.06-.22.1h0s0,0,0,0l-.06.03h0s-.01,0-.01,0l-.05.02h0s-.02,0-.02,0l-.04.02h0s-.02.01-.02.01l-.04.02h0s-.03.01-.03.01l-.04.02h0s-.03.01-.03.01l-.03.02v.02h-.03l-.03.02v.02h-.03c-.22.11-.44.23-.66.36h0s0,0,0,0c-.03.02-.06.04-.09.06h0s-.02.01-.02.01l-.05.03h0s0,0,0,0c-.03.02-.06.04-.09.06h0s-.02,0-.02,0l-.05.03h0s0,0,0,0l-.03.02h0s-.02.01-.02.01l-.04.03h0s0,0,0,0c-.03.02-.06.04-.09.06h0s0,0,0,0l-.09.06h0s0,0,0,0c-.11.07-.21.15-.32.22h0s-.01,0-.01,0c-.03.02-.06.04-.09.06h0s0,0,0,0l-.03.02h0s-.01.01-.01.01l-.08.06h0s0,0,0,0l-.03.02h0s-.01.01-.01.01l-.08.06-.03.02h0s0,0,0,0l-.02.02h0s-.02.01-.02.01c-.03.02-.05.04-.08.06h0s0,0,0,0l-.03.02h0s-.01,0-.01,0c-.05.04-.1.08-.15.13h0s0,0,0,0c-.07.06-.15.13-.22.2h0s0,0,0,0l-.03.03h0s0,0,0,0l-.03.02h0s0,0,0,0l-.02.02h0s-.01.01-.01.01l-.02.02h0s-.02.01-.02.01c-.11.1-.21.19-.31.29h0l-.03.03h0s0,0,0,0l-.03.03h0s0,0,0,0l-.03.03h0s-.03.04-.03.04l-.03.03c-.1.1-.2.2-.29.31v.02h-.01l-.02.02h0s-.01.01-.01.01l-.02.02h0s0,0,0,0l-.02.03h0s0,0,0,0l-.03.03h0s0,0,0,0c-.04.05-.09.1-.13.15h0s-.01.01-.01.01l-.02.02h0s0,0,0,0l-.02.03h0s0,0,0,0c-.05.06-.11.13-.16.19h0s0,0,0,0c-.04.05-.09.11-.13.16h0s-.07.08-.1.13h0s0,0,0,0c-.02.03-.04.05-.06.08v.02h-.01l-.02.03h0s0,0,0,0c-.02.03-.04.05-.06.08h0s-.01.01-.01.01l-.02.03h0s0,0,0,0l-.03.04v.02h-.01l-.02.03h0s0,0,0,0c-.02.03-.04.06-.06.09h0s-.01.01-.01.01c-.09.13-.17.25-.25.38h0s0,.01,0,.01c-.02.03-.04.06-.06.09h0s0,0,0,0l-.03.05v.02h-.01l-.06.09h0s0,0,0,0l-.03.05v.02h-.01l-.05.09h0s0,0,0,0l-.03.05h0s0,.01,0,.01l-.02.04v.02h-.01l-.05.09h0s0,0,0,0l-.03.06h0s0,.01,0,.01c-.1.18-.2.37-.29.56v.03h-.01l-.02.04v.02h-.01l-.02.04v.02h-.01l-.02.05h0s0,.01,0,.01l-.03.06h0s0,0,0,0c-.03.07-.06.14-.09.22h0s0,.01,0,.01l-.03.07c-.02.05-.04.1-.07.16h0s0,0,0,0c-.02.06-.04.11-.06.16h0s0,0,0,0l-.03.08v.02h0l-.03.07v.03h0l-.02.06v.04h-.01l-.02.05h0s0,.01,0,.01c0,.03-.02.06-.03.08h0s0,.01,0,.01l-.03.08v.02h0l-.03.08v.02h0s-.02.06-.03.09h0s0,.01,0,.01l-.03.09h0s0,0,0,0c-.02.07-.04.14-.06.22h0s0,.01,0,.01c0,.03-.02.07-.03.1v.03h0s-.02.06-.02.09v.04h-.01l-.02.09v.05h-.01l-.02.08v.04h-.01l-.02.1v.04h0l-.02.11v.02h0c-.02.1-.04.2-.06.29-.01.06-.02.12-.03.17v.06h0s-.02.09-.02.14v.09h-.01s-.01.08-.02.12v.07h0c0,.06-.02.11-.02.17v.06h0c0,.08-.02.15-.03.22h0c-.01.12-.02.24-.03.37v.23h-.01c0,.17-.02.35-.02.52v.13h0s0,.05,0,.07v.07h0v.18c0,.18,0,.36.02.53h.01v.18c0,.11.02.23.03.34h0v.03c0,.07.01.13.02.2h0v.08c0,.06.02.12.02.18h0v.07c0,.06.02.11.03.16h0v.05c0,.06.02.12.03.18h0c.02.12.04.22.06.33h0v.03l.03.14h0v.02l.03.11h0v.03l.02.1h0v.04l.02.09h0v.04l.02.09h0v.03c.04.15.08.3.13.46h0s.03.1.03.1h0s.03.1.03.1h0s.03.1.03.1h0s.03.1.03.1h0s.03.1.03.1h0s.03.1.03.1l.02.07h0v.02l.03.07h0s.03.1.03.1h0c.02.05.04.11.06.16h0s.03.07.03.07h0v.02s.04.1.06.14h0s.02.06.02.06h0v.02l.02.05h.01v.03l.03.07h0s.03.06.03.06h0s.03.07.03.07h0s.02.06.02.06h0v.02c.08.17.16.34.25.5h0v.02l.03.05h0s.03.07.03.07h0s.05.1.05.1h.01v.03l.02.04h0v.02l.03.05h0s.03.07.03.07l.06.1h0s.03.07.03.07h0c.05.09.11.17.16.26h0s.06.1.06.1h0s.06.1.06.1h0s.06.1.06.1h0s.02.03.02.03h.01v.02l.03.04h0s.02.03.02.03h.01v.02l.06.08h0s.06.1.06.1h0s.06.09.09.13h0s.06.09.1.13h0c.04.05.08.11.13.17h0s.02.03.02.03h0c.03.05.06.09.1.13l.03.03h0s.02.03.02.03h.01s.02.03.02.03h.02v.02s.07.07.1.11h0s.03.03.03.03h0s.02.03.02.03h0c.05.06.09.11.14.16-1.16-1.9-1.83-4.16-1.83-6.58,0-6.82,5.35-12.34,11.96-12.34,3.42,0,6.51,1.49,8.69,3.87-.19-.31-.4-.61-.61-.91h0s-.06-.09-.1-.13h0c-.08-.11-.17-.22-.26-.33h0c-.05-.07-.11-.13-.16-.2h0c-.32-.38-.67-.74-1.04-1.08h0s-.03-.03-.03-.03h0c-.15-.13-.3-.26-.45-.39h0c-.15-.13-.3-.24-.45-.36h0s-.09-.07-.13-.1l-.09-.06h0c-.19-.14-.38-.27-.58-.39h0c-.18-.12-.37-.22-.55-.33h0s-.06-.03-.06-.03h0c-.21-.12-.42-.22-.64-.33h-.01s-.06-.03-.06-.03h0c-.15-.07-.3-.13-.45-.19h0c-.05-.02-.1-.04-.16-.07h0c-.09-.03-.17-.07-.26-.1h0c-.12-.05-.25-.09-.38-.13h-.02s-.09-.03-.09-.03h0c-.11-.03-.22-.07-.32-.09h0c-.12-.04-.25-.07-.37-.1h-.02s-.12-.03-.12-.03h0c-.15-.03-.3-.07-.46-.1h0c-.06-.01-.12-.02-.18-.03h-.01c-.06-.01-.13-.02-.19-.03h0c-.08-.01-.15-.02-.22-.03h0c-.09-.01-.18-.02-.27-.03h-.06c-.1-.02-.2-.03-.3-.03h-.03c-.22-.02-.44-.03-.66-.03h-.12s-.13,0-.13,0Z"/></clipPath><clipPath id="clippath-3"><path d="M53.05,83.03c-.07,0-.14,0-.2,0h-.01c-.1,0-.19.01-.27.03h-.04s0,0,0,0c-.04,0-.09.02-.13.03h0s-.02,0-.02,0c-.03,0-.06.02-.08.03h0s0,0,0,0c-.04.02-.07.04-.1.06h0s0,0,0,0c0,0-.02.02-.03.03h0s0,0,0,0c-.02.03-.05.06-.06.1v.03h-.01c-.03.1-.04.22-.02.39.06.55.08.98.08,1.45v.16c0,6.9-3.68,12.84-9.3,15.73,0,0-.02,0-.05.02h-.03s-.07.05-.07.05c-1.33.58-2.61.86-3.82.95.19,0,.38.02.57.02h.21s.03,0,.03,0h0s0,0,0,0c.2,0,.39-.01.58-.03h0s.03,0,.03,0c.11,0,.22-.02.33-.03h0s.01,0,.01,0c.08,0,.17-.02.25-.03h0s.02,0,.02,0c.07,0,.14-.02.21-.03h0s.01,0,.01,0c.12-.02.23-.04.35-.06h0s.02,0,.02,0c.05,0,.1-.02.14-.03h0s.03,0,.03,0c.05,0,.09-.02.14-.03h0s0,0,0,0c.17-.04.34-.08.51-.13h0s.02,0,.02,0c.04-.01.08-.02.11-.03h0c.14-.04.28-.08.42-.13h0s0,0,0,0l.09-.03h0s0,0,0,0c.03-.01.06-.02.09-.03h0s0,0,0,0c.03,0,.06-.02.09-.03h0c.25-.09.5-.19.75-.29h0s0,0,0,0c.07-.03.15-.06.22-.1h0s0,0,0,0c.35-.16.7-.33,1.04-.52h0s0,0,0,0l.06-.03h0c.08-.04.15-.08.23-.13h0s0,0,0,0c.11-.06.21-.13.32-.19h0s0,0,0,0c.05-.03.11-.06.16-.1h0s.1-.06.1-.06h0s0,0,0,0c.2-.12.39-.26.58-.39h0s0,0,0,0c.25-.18.5-.36.75-.55h0s0,0,0,0c.17-.14.35-.28.52-.42h0s0,0,0,0c.06-.06.13-.11.19-.16h0s0,0,0,0c.09-.07.18-.15.26-.23h0s0,0,0,0c.12-.11.24-.22.36-.32h0s0,0,0,0c.36-.33.7-.68,1.04-1.04h0s0,0,0,0l.03-.03h0s0,0,0,0l.03-.03c.11-.12.22-.24.33-.36h0s0,0,0,0c.08-.08.15-.17.23-.26h0s0,0,0,0c.18-.2.35-.41.52-.61h0s0,0,0,0c.17-.2.33-.41.49-.61h0s0,0,0,0c.13-.17.26-.34.39-.52h0s0,0,0,0c.05-.07.11-.15.16-.22h0s0,0,0,0c.26-.36.51-.74.75-1.11.06-.08.11-.17.16-.26h0s0,0,0,0c.05-.09.11-.17.16-.26.06-.11.13-.22.19-.33h0c.13-.23.26-.46.39-.68h0c.07-.12.13-.24.19-.36.22-.41.43-.82.62-1.23h0s0,0,0,0l.03-.06h0c.1-.22.2-.44.29-.65.2-.47.39-.94.55-1.4h0s0,0,0,0c.12-.33.23-.66.33-.98h0c.07-.23.14-.46.2-.69h0c.02-.09.04-.17.07-.26h0s0,0,0,0c0-.04.02-.08.03-.12h0s0,0,0,0c.08-.33.14-.66.2-.97v-.08c0-.22,0-.45,0-.59,0,0,0,0,0-.02h0s0-.09-.03-.16c-.05-.16-.17-.37-.49-.49-.4-.15-.86-.28-1.32-.36h-.02c-.06-.01-.12-.02-.18-.03h-.01c-.08-.01-.15-.02-.23-.03h-.03c-.06,0-.11-.01-.17-.02h-.01c-.06,0-.12,0-.18-.01h-.09c-.08,0-.15,0-.23,0-.04,0-.08,0-.12,0"/></clipPath></defs><path class="cls-4" d="M39.33,106.89c-8.73,0-16.19-4.75-19.62-12.95-1.15-2.37-1.86-5.99-1.86-8.82,0-1.41.17-3.17.47-4.48h0c0-.39-.31-.66-.68-.71-4.34-.62-9.05.23-10.76.8-.36.12-.64.3-.7.86,0,0-.18,1.56-.18,2.63,0,13.8,11.24,24.99,25.1,24.99,3.94,0,7.67-.91,10.99-2.52-.9.12-1.82.2-2.76.2"/><path d="M14.25,79.71c-.08,0-.16,0-.23,0h0s-.29,0-.29,0c-.2,0-.39.01-.59.02-.04.36-.1.97-.13,1.57h0c-.01.26-.02.5-.02.73,0,.29,0,.59.02.88h0v.12c0,.2.02.4.03.59h0v.03c0,.13.02.26.03.39h0v.05c.02.22.04.44.06.66h0v.02c0,.08.02.16.03.25h0v.04c0,.08.02.15.03.23h0v.03c0,.08.02.15.03.23h0c.03.21.06.41.09.62h0v.02c.01.06.02.12.03.18h0s.03.16.03.16h0v.03c0,.06.02.11.03.16h0c0,.06.02.11.03.16h0c.02.12.04.22.06.33h0c.02.1.04.2.06.29h0s.02.09.03.13h0v.03c.03.13.07.26.1.4h0c.02.09.04.18.06.26h0c.02.08.04.15.06.23h0s.03.13.03.13h0s.02.06.03.1h0v.03l.03.11h0s.02.07.03.1h0v.02c.05.18.11.36.16.54l.03.1h0s.03.1.03.1h0s.03.1.03.1h0s.03.1.03.1h0s.02.07.03.1h0s.02.07.03.1h0c.08.24.17.48.26.72h0c.02.06.04.11.06.16h0c.02.06.04.11.06.16h0v.02s.04.1.06.15h0c.07.2.15.38.23.55h0c.04.1.08.2.13.29h0s.03.07.03.07h0v.02c.04.09.09.18.13.28h0s.03.06.03.06h0c.14.31.29.62.45.92h0s.03.06.03.06h0s.03.07.03.07h0s.03.07.03.07c.07.12.13.24.2.36h0c.04.08.08.15.13.23h0c.04.08.08.15.13.23h0c.03.06.06.11.1.16h0c.12.2.24.4.36.59h0s.04.07.06.1h0c.07.13.15.24.23.36l.06.1c.1.14.19.28.29.42h0s.06.1.06.1h0s.06.09.09.13h0s.04.07.06.1h0s.06.09.09.13h0c.13.18.26.35.39.52h0c.04.06.08.11.12.16h0c.04.06.08.11.13.16h0c.15.19.3.38.45.56h0c.05.07.11.13.16.2h0l.03.03h0c.08.09.15.17.22.26h0c.11.12.22.24.33.36h0s.03.04.03.04h0s.03.03.03.03h0c.36.4.74.78,1.13,1.14h0s.03.03.03.03h0s.03.03.03.03h0c.13.12.26.24.39.36.07.07.15.13.22.2h0s.03.03.03.03h0c.08.07.15.13.23.19h0c.13.11.26.22.39.33h0c.05.05.11.09.16.13h0c.06.04.11.09.16.13h0s.12.1.12.1h0c.05.05.11.09.16.13.04.03.09.07.13.1h0c.16.12.32.24.49.36h0s.06.04.08.07h.01s.09.07.13.1h0l.09.07h0c.22.16.45.31.68.46h0s.06.05.09.07h0c.09.06.17.11.26.16h0c.21.13.43.27.65.39h0c.07.05.15.09.22.13h0c.07.04.15.09.23.13.14.08.28.15.42.23h0l.06.03h0s.06.03.06.03h0s.05.03.05.03h.01s.05.03.05.03h.01s.05.03.05.03h.02c.21.12.43.22.65.33.12.06.23.11.35.16h0s.06.03.06.03h0c.07.04.15.07.22.1h0c.2.09.4.18.61.26h.01c.05.02.1.04.15.07h.01c.05.02.1.04.15.06h.01c.05.03.11.05.16.07h0c.21.08.41.15.62.23h0s.09.03.09.03h0s.09.03.09.03h0s.05.02.08.03h.02s.08.03.08.03h.02s.06.02.08.03h.01s.09.03.09.03h.01s.09.03.09.03h0s.1.03.1.03h0s.07.02.1.03c.14.05.29.09.44.13h.02s.06.02.09.03h0s.11.03.11.03h.02c.07.03.15.05.22.06h0c.25.07.51.14.76.2h.02s.08.02.12.03h.01c.09.03.19.04.28.06h0c.21.05.42.09.63.13h.02c.05.01.1.02.15.03h.01c.06.01.11.02.17.03h.03c.26.05.53.09.8.13h.01c.07.01.15.02.22.03h.04c.07.01.15.02.22.03h.04c.08.01.17.02.25.03h.02c.22.03.44.05.66.07h.06c.13.01.27.02.4.03h.06c.19.01.38.02.57.03h.12c.3.02.59.02.89.02.19,0,.38,0,.57,0v-.02h.47c.11,0,.21,0,.31-.01v-.02h.29c.14-.01.29-.02.43-.03h0c.09,0,.17-.01.26-.02h0s.1,0,.1,0l.19-.02h0s.12-.01.12-.01l.14-.02v-.02h.26v-.03h.13l.13-.02v-.02h.11c.06,0,.12-.02.18-.03h0s.04,0,.04,0c.07,0,.14-.02.21-.03.02,0,.03-.01.04-.02-.9.12-1.82.2-2.75.2-8.73,0-16.19-4.75-19.62-12.95-1.15-2.37-1.86-5.99-1.86-8.82,0-1.4.17-3.17.48-4.48h0c0-.05,0-.09-.01-.13h-.01v-.06s-.03-.09-.06-.14h0v-.02s-.04-.06-.06-.08h0s-.06-.07-.09-.1h0s-.06-.05-.09-.07h-.01s-.08-.05-.12-.07h0s-.06-.02-.09-.03h0s-.07-.01-.1-.02h-.08s-.01,0-.01,0h0c-.08-.01-.15-.02-.23-.03h-.09c-.06-.02-.12-.03-.18-.03h-.15v-.02l-.17-.02h-.13c-.08-.02-.16-.03-.25-.03h-.08c-.13-.02-.26-.03-.4-.03h-.13c-.22-.02-.44-.03-.66-.03h-.38s-.1,0-.15,0h-.31Z"/><g class="cls-6"><rect x="12.98" y="79.71" width="29.1" height="27.31"/></g><path class="cls-4" d="M56.18,84.17s0-.48-.52-.68c-.93-.35-2.17-.56-3.09-.43-.38.05-.56.2-.51.69.06.62.08,1.07.08,1.61,0,6.89-3.68,12.84-9.3,15.73,0,0-.14.07-.14.07-3.58,1.56-6.84.98-9.21,0-3.44-1.09-5.95-4.44-5.95-8.4,0-4.85,3.75-8.78,8.38-8.78s8.38,3.93,8.38,8.78c0,4.14-2.74,7.61-6.42,8.53,1.93-.21,3.45-.71,3.58-.76,2.75-1.06,4.08-3.44,4.43-4.47.43-1.27.66-2.62.66-4.04,0-6.82-5.35-12.34-11.96-12.34s-11.96,5.53-11.96,12.34c0,3.32,1.26,6.35,3.34,8.55,1.96,2.08,4.63,3.3,5.4,3.66,2.5,1.16,5.2,1.78,7.96,1.78,2.09,0,4.14-.36,6.1-1.03,6.33-4.39,10.54-11.61,10.76-19.83,0-.22,0-.74,0-.97"/><path d="M43.14,88.29c.74,1.31,1.17,2.83,1.17,4.46,0,4.14-2.74,7.61-6.42,8.53h.09s.01-.01.01-.01c.08,0,.17-.02.25-.03h0s.02,0,.02,0c.43-.06.82-.12,1.19-.19h0s0,0,0,0l.16-.03h0s0,0,0,0c.21-.04.4-.08.58-.13h0s0,0,0,0c.72-.17,1.19-.33,1.27-.36.06-.02.11-.04.16-.07h0s0,0,0,0l.06-.02h0s.02,0,.02,0c.05-.02.1-.04.14-.06h0s0,0,0,0l.06-.03h0s.01,0,.01,0l.05-.03h0s.01,0,.01,0c.11-.05.21-.11.31-.16h0s.01,0,.01,0l.05-.03h0s0,0,0,0c.05-.03.11-.06.16-.09h0s.01,0,.01,0l.05-.03h0s0,0,0,0c.05-.03.11-.06.16-.1h0s0,0,0,0c.03-.02.06-.04.1-.06h0s0,0,0,0c.03-.02.06-.04.09-.06h0s0,0,0,0l.09-.06h0s0,0,0,0c.04-.03.09-.06.13-.09h0s0,0,0,0c.08-.06.17-.13.25-.19h0s0,0,0,0c.07-.05.13-.11.19-.16h0s0,0,0,0l.03-.03h0s0,0,0,0c.08-.08.17-.15.25-.23l.03-.03h0s0,0,0,0l.03-.03h0s0,0,0,0l.03-.03h0s0,0,0,0l.03-.03h0s0,0,0,0l.03-.03h0s0,0,0,0l.03-.03h0s0,0,0,0l.03-.03h0s0,0,0,0l.03-.03h0s0,0,0,0l.03-.03c.09-.1.18-.19.26-.29h0s0,0,0,0l.03-.03h0s0,0,0,0c.06-.07.11-.13.16-.2h0s0,0,0,0c.1-.13.2-.26.29-.39h0s0,0,0,0c.09-.13.18-.26.26-.39h0s0,0,0,0c.03-.05.06-.09.08-.14.01-.05.03-.1.04-.15h0s0,0,0,0c.01-.04.02-.08.03-.11h0s0-.01,0-.01l.03-.11v-.02h0c.02-.09.04-.17.06-.26h0c.01-.05.02-.1.03-.16h0s0,0,0,0c0-.05.02-.11.03-.16.01-.07.02-.13.03-.19h0s0,0,0,0c.01-.07.02-.15.03-.22h0s0,0,0,0c.01-.09.02-.18.03-.27v-.02h0c.01-.13.02-.27.03-.4v-.13h0c0-.1,0-.2,0-.3v-.1c0-.07,0-.15,0-.22h0v-.23c0-.14-.02-.28-.03-.42h0c0-.08-.02-.15-.02-.23h0v-.06c0-.06-.02-.11-.02-.17h0v-.05c0-.06-.02-.12-.03-.18h0v-.02c-.03-.15-.06-.29-.09-.43h-.01v-.04l-.02-.09h-.01v-.04l-.02-.09h-.01v-.04l-.03-.1h0v-.03l-.03-.1h0c-.03-.1-.06-.2-.09-.29h0v-.03l-.02-.07h0v-.02l-.03-.08h0v-.02l-.03-.08h0c-.02-.06-.04-.11-.06-.16h0c-.04-.12-.08-.22-.13-.33h0s-.03-.07-.03-.07h0s-.02-.06-.02-.06h0v-.02l-.02-.05h0v-.02l-.02-.05h-.01v-.02c-.07-.15-.15-.29-.22-.43h0s-.03-.07-.03-.07l-.06-.1h0v-.02l-.03-.05h0s-.04-.07-.06-.1h-.01v-.02l-.03-.05h0s-.06-.1-.06-.1h0c-.06-.11-.13-.2-.19-.29h0s-.06-.1-.06-.1h0s-.06-.09-.09-.13h0s-.06-.09-.09-.13h0c-.08-.12-.17-.22-.26-.33h0l-.03-.03h0s-.02-.03-.02-.03h0c-.07-.09-.15-.18-.23-.26h0l-.03-.03h0s-.03-.03-.03-.03h0s-.06-.06-.09-.1h0Z"/><g class="cls-1"><rect x="37.88" y="88.29" width="7.83" height="13"/></g><path d="M34.54,79.67h0s-.1,0-.1,0c-.17,0-.35,0-.52.02h0s-.23.01-.23.01c-.12,0-.24.02-.35.03-.08,0-.15.02-.23.03h0s-.05,0-.05,0c-.05,0-.1.01-.15.02h0s-.08.01-.08.01c-.04,0-.08.01-.12.02h0s-.08.01-.08.01c-.05,0-.1.01-.15.02h0s-.04,0-.04,0c-.05.01-.1.02-.15.03h0s-.01,0-.01,0c-.05.01-.1.02-.15.03h0s-.08.02-.13.03h0s-.02,0-.02,0c-.04,0-.07.02-.11.03h0s-.03,0-.03,0c-.04,0-.07.02-.1.03h0s-.03,0-.03,0l-.07.02h0s-.06.01-.06.01l-.07.02h0s-.04.01-.04.01l-.09.02h0s-.03,0-.03,0l-.1.03h0s0,0,0,0c-.16.05-.32.1-.48.16h0s-.02,0-.02,0c-.03,0-.05.02-.08.03h0s-.01,0-.01,0l-.05.02h0s-.04.01-.04.01l-.06.02h0s-.03,0-.03,0l-.07.02h0s-.01,0-.01,0l-.05.02h0s-.03.01-.03.01l-.07.03h0s-.02,0-.02,0c-.05.02-.1.04-.15.06h0s-.01,0-.01,0c-.07.03-.14.06-.22.1h0s0,0,0,0l-.06.03h0s-.01,0-.01,0l-.05.02h0s-.02,0-.02,0l-.04.02h0s-.02.01-.02.01l-.04.02h0s-.03.01-.03.01l-.04.02h0s-.03.01-.03.01l-.03.02v.02h-.03l-.03.02v.02h-.03c-.22.11-.44.23-.66.36h0s0,0,0,0c-.03.02-.06.04-.09.06h0s-.02.01-.02.01l-.05.03h0s0,0,0,0c-.03.02-.06.04-.09.06h0s-.02,0-.02,0l-.05.03h0s0,0,0,0l-.03.02h0s-.02.01-.02.01l-.04.03h0s0,0,0,0c-.03.02-.06.04-.09.06h0s0,0,0,0l-.09.06h0s0,0,0,0c-.11.07-.21.15-.32.22h0s-.01,0-.01,0c-.03.02-.06.04-.09.06h0s0,0,0,0l-.03.02h0s-.01.01-.01.01l-.08.06h0s0,0,0,0l-.03.02h0s-.01.01-.01.01l-.08.06-.03.02h0s0,0,0,0l-.02.02h0s-.02.01-.02.01c-.03.02-.05.04-.08.06h0s0,0,0,0l-.03.02h0s-.01,0-.01,0c-.05.04-.1.08-.15.13h0s0,0,0,0c-.07.06-.15.13-.22.2h0s0,0,0,0l-.03.03h0s0,0,0,0l-.03.02h0s0,0,0,0l-.02.02h0s-.01.01-.01.01l-.02.02h0s-.02.01-.02.01c-.11.1-.21.19-.31.29h0l-.03.03h0s0,0,0,0l-.03.03h0s0,0,0,0l-.03.03h0s-.03.04-.03.04l-.03.03c-.1.1-.2.2-.29.31v.02h-.01l-.02.02h0s-.01.01-.01.01l-.02.02h0s0,0,0,0l-.02.03h0s0,0,0,0l-.03.03h0s0,0,0,0c-.04.05-.09.1-.13.15h0s-.01.01-.01.01l-.02.02h0s0,0,0,0l-.02.03h0s0,0,0,0c-.05.06-.11.13-.16.19h0s0,0,0,0c-.04.05-.09.11-.13.16h0s-.07.08-.1.13h0s0,0,0,0c-.02.03-.04.05-.06.08v.02h-.01l-.02.03h0s0,0,0,0c-.02.03-.04.05-.06.08h0s-.01.01-.01.01l-.02.03h0s0,0,0,0l-.03.04v.02h-.01l-.02.03h0s0,0,0,0c-.02.03-.04.06-.06.09h0s-.01.01-.01.01c-.09.13-.17.25-.25.38h0s0,.01,0,.01c-.02.03-.04.06-.06.09h0s0,0,0,0l-.03.05v.02h-.01l-.06.09h0s0,0,0,0l-.03.05v.02h-.01l-.05.09h0s0,0,0,0l-.03.05h0s0,.01,0,.01l-.02.04v.02h-.01l-.05.09h0s0,0,0,0l-.03.06h0s0,.01,0,.01c-.1.18-.2.37-.29.56v.03h-.01l-.02.04v.02h-.01l-.02.04v.02h-.01l-.02.05h0s0,.01,0,.01l-.03.06h0s0,0,0,0c-.03.07-.06.14-.09.22h0s0,.01,0,.01l-.03.07c-.02.05-.04.1-.07.16h0s0,0,0,0c-.02.06-.04.11-.06.16h0s0,0,0,0l-.03.08v.02h0l-.03.07v.03h0l-.02.06v.04h-.01l-.02.05h0s0,.01,0,.01c0,.03-.02.06-.03.08h0s0,.01,0,.01l-.03.08v.02h0l-.03.08v.02h0s-.02.06-.03.09h0s0,.01,0,.01l-.03.09h0s0,0,0,0c-.02.07-.04.14-.06.22h0s0,.01,0,.01c0,.03-.02.07-.03.1v.03h0s-.02.06-.02.09v.04h-.01l-.02.09v.05h-.01l-.02.08v.04h-.01l-.02.1v.04h0l-.02.11v.02h0c-.02.1-.04.2-.06.29-.01.06-.02.12-.03.17v.06h0s-.02.09-.02.14v.09h-.01s-.01.08-.02.12v.07h0c0,.06-.02.11-.02.17v.06h0c0,.08-.02.15-.03.22h0c-.01.12-.02.24-.03.37v.23h-.01c0,.17-.02.35-.02.52v.13h0s0,.05,0,.07v.07h0v.18c0,.18,0,.36.02.53h.01v.18c0,.11.02.23.03.34h0v.03c0,.07.01.13.02.2h0v.08c0,.06.02.12.02.18h0v.07c0,.06.02.11.03.16h0v.05c0,.06.02.12.03.18h0c.02.12.04.22.06.33h0v.03l.03.14h0v.02l.03.11h0v.03l.02.1h0v.04l.02.09h0v.04l.02.09h0v.03c.04.15.08.3.13.46h0s.03.1.03.1h0s.03.1.03.1h0s.03.1.03.1h0s.03.1.03.1h0s.03.1.03.1h0s.03.1.03.1l.02.07h0v.02l.03.07h0s.03.1.03.1h0c.02.05.04.11.06.16h0s.03.07.03.07h0v.02s.04.1.06.14h0s.02.06.02.06h0v.02l.02.05h.01v.03l.03.07h0s.03.06.03.06h0s.03.07.03.07h0s.02.06.02.06h0v.02c.08.17.16.34.25.5h0v.02l.03.05h0s.03.07.03.07h0s.05.1.05.1h.01v.03l.02.04h0v.02l.03.05h0s.03.07.03.07l.06.1h0s.03.07.03.07h0c.05.09.11.17.16.26h0s.06.1.06.1h0s.06.1.06.1h0s.06.1.06.1h0s.02.03.02.03h.01v.02l.03.04h0s.02.03.02.03h.01v.02l.06.08h0s.06.1.06.1h0s.06.09.09.13h0s.06.09.1.13h0c.04.05.08.11.13.17h0s.02.03.02.03h0c.03.05.06.09.1.13l.03.03h0s.02.03.02.03h.01s.02.03.02.03h.02v.02s.07.07.1.11h0s.03.03.03.03h0s.02.03.02.03h0c.05.06.09.11.14.16-1.16-1.9-1.83-4.16-1.83-6.58,0-6.82,5.35-12.34,11.96-12.34,3.42,0,6.51,1.49,8.69,3.87-.19-.31-.4-.61-.61-.91h0s-.06-.09-.1-.13h0c-.08-.11-.17-.22-.26-.33h0c-.05-.07-.11-.13-.16-.2h0c-.32-.38-.67-.74-1.04-1.08h0s-.03-.03-.03-.03h0c-.15-.13-.3-.26-.45-.39h0c-.15-.13-.3-.24-.45-.36h0s-.09-.07-.13-.1l-.09-.06h0c-.19-.14-.38-.27-.58-.39h0c-.18-.12-.37-.22-.55-.33h0s-.06-.03-.06-.03h0c-.21-.12-.42-.22-.64-.33h-.01s-.06-.03-.06-.03h0c-.15-.07-.3-.13-.45-.19h0c-.05-.02-.1-.04-.16-.07h0c-.09-.03-.17-.07-.26-.1h0c-.12-.05-.25-.09-.38-.13h-.02s-.09-.03-.09-.03h0c-.11-.03-.22-.07-.32-.09h0c-.12-.04-.25-.07-.37-.1h-.02s-.12-.03-.12-.03h0c-.15-.03-.3-.07-.46-.1h0c-.06-.01-.12-.02-.18-.03h-.01c-.06-.01-.13-.02-.19-.03h0c-.08-.01-.15-.02-.22-.03h0c-.09-.01-.18-.02-.27-.03h-.06c-.1-.02-.2-.03-.3-.03h-.03c-.22-.02-.44-.03-.66-.03h-.12s-.13,0-.13,0Z"/><g class="cls-3"><rect x="22.63" y="79.67" width="22.06" height="20.79"/></g><path d="M53.05,83.03c-.07,0-.14,0-.2,0h-.01c-.1,0-.19.01-.27.03h-.04s0,0,0,0c-.04,0-.09.02-.13.03h0s-.02,0-.02,0c-.03,0-.06.02-.08.03h0s0,0,0,0c-.04.02-.07.04-.1.06h0s0,0,0,0c0,0-.02.02-.03.03h0s0,0,0,0c-.02.03-.05.06-.06.1v.03h-.01c-.03.1-.04.22-.02.39.06.55.08.98.08,1.45v.16c0,6.9-3.68,12.84-9.3,15.73,0,0-.02,0-.05.02h-.03s-.07.05-.07.05c-1.33.58-2.61.86-3.82.95.19,0,.38.02.57.02h.21s.03,0,.03,0h0s0,0,0,0c.2,0,.39-.01.58-.03h0s.03,0,.03,0c.11,0,.22-.02.33-.03h0s.01,0,.01,0c.08,0,.17-.02.25-.03h0s.02,0,.02,0c.07,0,.14-.02.21-.03h0s.01,0,.01,0c.12-.02.23-.04.35-.06h0s.02,0,.02,0c.05,0,.1-.02.14-.03h0s.03,0,.03,0c.05,0,.09-.02.14-.03h0s0,0,0,0c.17-.04.34-.08.51-.13h0s.02,0,.02,0c.04-.01.08-.02.11-.03h0c.14-.04.28-.08.42-.13h0s0,0,0,0l.09-.03h0s0,0,0,0c.03-.01.06-.02.09-.03h0s0,0,0,0c.03,0,.06-.02.09-.03h0c.25-.09.5-.19.75-.29h0s0,0,0,0c.07-.03.15-.06.22-.1h0s0,0,0,0c.35-.16.7-.33,1.04-.52h0s0,0,0,0l.06-.03h0c.08-.04.15-.08.23-.13h0s0,0,0,0c.11-.06.21-.13.32-.19h0s0,0,0,0c.05-.03.11-.06.16-.1h0s.1-.06.1-.06h0s0,0,0,0c.2-.12.39-.26.58-.39h0s0,0,0,0c.25-.18.5-.36.75-.55h0s0,0,0,0c.17-.14.35-.28.52-.42h0s0,0,0,0c.06-.06.13-.11.19-.16h0s0,0,0,0c.09-.07.18-.15.26-.23h0s0,0,0,0c.12-.11.24-.22.36-.32h0s0,0,0,0c.36-.33.7-.68,1.04-1.04h0s0,0,0,0l.03-.03h0s0,0,0,0l.03-.03c.11-.12.22-.24.33-.36h0s0,0,0,0c.08-.08.15-.17.23-.26h0s0,0,0,0c.18-.2.35-.41.52-.61h0s0,0,0,0c.17-.2.33-.41.49-.61h0s0,0,0,0c.13-.17.26-.34.39-.52h0s0,0,0,0c.05-.07.11-.15.16-.22h0s0,0,0,0c.26-.36.51-.74.75-1.11.06-.08.11-.17.16-.26h0s0,0,0,0c.05-.09.11-.17.16-.26.06-.11.13-.22.19-.33h0c.13-.23.26-.46.39-.68h0c.07-.12.13-.24.19-.36.22-.41.43-.82.62-1.23h0s0,0,0,0l.03-.06h0c.1-.22.2-.44.29-.65.2-.47.39-.94.55-1.4h0s0,0,0,0c.12-.33.23-.66.33-.98h0c.07-.23.14-.46.2-.69h0c.02-.09.04-.17.07-.26h0s0,0,0,0c0-.04.02-.08.03-.12h0s0,0,0,0c.08-.33.14-.66.2-.97v-.08c0-.22,0-.45,0-.59,0,0,0,0,0-.02h0s0-.09-.03-.16c-.05-.16-.17-.37-.49-.49-.4-.15-.86-.28-1.32-.36h-.02c-.06-.01-.12-.02-.18-.03h-.01c-.08-.01-.15-.02-.23-.03h-.03c-.06,0-.11-.01-.17-.02h-.01c-.06,0-.12,0-.18-.01h-.09c-.08,0-.15,0-.23,0-.04,0-.08,0-.12,0"/><g class="cls-2"><rect x="35.22" y="80.7" width="24.62" height="23.75" transform="translate(-56.46 96.53) rotate(-65)"/></g><path d="M135.17,100.84l.45-2.6h3.2c.05,0,1.45-.03,1.64-1.1.1-.55-.8-1.2-1.75-1.88-1.4-1.01-3.13-2.27-2.81-4.11.39-2.14,2.32-3.58,4.8-3.58h3.3l-.47,2.62h-3.18c-.06,0-1.47.02-1.66,1.08-.09.55.81,1.19,1.75,1.88,1.4,1.01,3.15,2.27,2.82,4.12-.37,2.14-2.29,3.58-4.78,3.58h-3.32ZM125.95,100.84l.45-2.6h3.2c.05,0,1.45-.03,1.63-1.1.1-.55-.79-1.2-1.74-1.88-1.4-1.01-3.13-2.27-2.81-4.11.39-2.14,2.32-3.58,4.8-3.58h3.3l-.48,2.62h-3.18c-.06,0-1.47.02-1.66,1.08-.09.55.8,1.19,1.75,1.88,1.4,1.01,3.15,2.27,2.82,4.12-.37,2.14-2.29,3.58-4.78,3.58h-3.32ZM120.64,100.84c-.92,0-2.18-.33-2.95-1.25-.6-.71-.82-1.68-.63-2.78.02-.12.94-5.33.94-5.33.52-2.87,3.19-3.91,4.85-3.91h3.32l-.47,2.62h-3.2c-.75.04-1.71.33-1.9,1.42,0,.06-.15.8-.24,1.28l3.89.02-.47,2.61h-3.85c-.09.45-.26,1.34-.27,1.41-.07.38-.01.66.16.87.28.33.85.42,1.14.42h3.32l-.45,2.62h-3.2ZM111.83,100.84l-1.84-4.83h-.38l-.85,4.83h-2.63l2.33-13.26h4.16c.07,0,1.87.01,2.91,1.25.63.75.83,1.76.61,3.02-.44,2.5-2.14,3.48-3.33,3.86l1.96,5.13h-2.94ZM110.06,93.38l1.64-.02c.45-.04,1.6-.29,1.85-1.64.08-.47.01-.84-.2-1.09-.36-.44-1.06-.45-1.07-.45h-1.65l-.56,3.19ZM96.08,100.84l2.34-13.26h4.16c.08,0,1.87.01,2.91,1.25.63.75.84,1.76.61,3.02-.72,4.11-4.85,4.15-4.89,4.15h-1.65l-.85,4.83h-2.63ZM101.54,93.39c.06,0,1.66-.03,1.95-1.66.08-.47.01-.84-.2-1.09-.36-.44-1.06-.45-1.07-.45h-1.65l-.56,3.2h1.53ZM91.77,100.84l-1.3-4.27-2.82,4.27h-2.95l4.39-6.7-2.01-6.58h2.85l1.32,4.27,2.8-4.27h2.97l-4.41,6.69,2.02,6.59h-2.87ZM80.75,100.84c-.92,0-2.18-.33-2.95-1.25-.6-.71-.82-1.68-.63-2.78.02-.12.94-5.33.94-5.33.52-2.87,3.19-3.91,4.85-3.91h3.32l-.47,2.62h-3.2c-.75.04-1.71.33-1.9,1.42,0,.06-.15.8-.23,1.28l3.88.02-.47,2.61h-3.85c-.09.45-.25,1.34-.27,1.41-.07.38-.01.66.16.87.28.33.85.42,1.14.42h3.32l-.45,2.62h-3.2Z"/><path d="M72.25,93.39c.07,0,1.66-.03,1.95-1.66.08-.47.01-.84-.2-1.09-.37-.44-1.06-.45-1.07-.45h-1.65l-.56,3.2h1.53ZM66.79,100.84l2.33-13.26h4.16c.08,0,1.88.01,2.91,1.25.63.75.83,1.76.61,3.02-.72,4.11-4.85,4.15-4.89,4.15h-1.65l-.85,4.83h-2.63ZM59.03,100.84l2.33-13.28h2.62l-1.88,10.66h4.07l-.45,2.62h-6.7Z"/><path class="cls-5" d="M20.82,57.02c0,1.86-.53,3.32-1.57,4.48-1.05,1.16-2.31,1.72-3.93,1.73-1.41,0-2.55-.47-3.54-1.43-.96-.94-1.45-2.21-1.46-3.93v-11.01h-4.02v11.91c0,2.48.84,4.55,2.52,6.06,1.65,1.5,3.67,2.25,5.97,2.25,1.55,0,2.94-.36,4.14-1.09.72-.44,1.35-.96,1.89-1.56v2.32h4.02v-19.89h-4.02v10.16Z"/><path class="cls-5" d="M38.89,46.54c-1.55,0-2.94.35-4.14,1.07-.73.43-1.35.95-1.89,1.54v-2.29h-4.02v19.89h4.02v-10.16c0-1.86.53-3.33,1.57-4.5,1.05-1.17,2.31-1.74,3.93-1.74,1.44,0,2.59.46,3.56,1.39.94.91,1.43,2.2,1.44,3.99v11.01h4.02v-11.94c0-2.46-.84-4.52-2.52-6.02-1.65-1.49-3.67-2.25-5.97-2.25Z"/><path class="cls-5" d="M68.68,55h0c-2.19-.45-3.71-.86-4.46-1.2-.36-.16-.59-.35-.74-.55-.14-.2-.22-.43-.22-.73,0-.34.08-.62.26-.89.17-.27.45-.52.85-.75.82-.47,1.77-.72,2.89-.72,2.16,0,4.5.79,7.04,2.42l.76.49v-4.19l-.25-.14c-2.51-1.46-5.04-2.21-7.56-2.21-2.06,0-3.9.52-5.48,1.56-.8.53-1.43,1.17-1.84,1.91-.42.75-.63,1.59-.62,2.51-.01,1.56.68,2.88,1.96,3.76,1.26.87,3.11,1.54,5.6,2.07h0c1.95.42,3.3.88,4,1.31.35.22.59.44.74.67.15.23.21.45.22.71h0s0,.01,0,.01v.05c0,.31-.07.57-.22.82-.15.25-.38.5-.72.73-.68.47-1.67.73-2.98.73-1.52,0-2.96-.32-4.34-.95-1.4-.65-2.51-1.41-3.37-2.29l-.85-.87v4.83l.22.15c2.73,1.83,5.53,2.76,8.37,2.76,2.19,0,4.05-.5,5.53-1.53,1.5-1.04,2.29-2.6,2.28-4.49,0-1.48-.57-2.78-1.68-3.77-1.13-1.01-2.92-1.73-5.39-2.24Z"/><path class="cls-5" d="M98.44,55.34s0,0,0,0,0,0,0,0h0c-.35-2.48-1.48-4.59-3.35-6.26h0c-1.87-1.68-4.11-2.54-6.62-2.53-2.8,0-5.24,1-7.21,2.98-1.98,1.97-2.98,4.43-2.98,7.25,0,2.8,1,5.25,2.96,7.25,1.96,2,4.41,3.02,7.24,3.02,1.91,0,3.74-.49,5.44-1.47,1.7-.98,2.98-2.3,3.78-3.94l.28-.56-3.67-.86-.19.27c-.62.86-1.42,1.54-2.43,2.06-1,.51-2.06.77-3.2.77-1.66,0-3.03-.5-4.2-1.52-1.03-.9-1.63-2.02-1.87-3.41h16l.08-.4c.07-.36.11-.75.11-1.15,0-.47-.05-.96-.14-1.47h0ZM82.41,54.99c.26-1.25.86-2.31,1.88-3.22,1.16-1.03,2.52-1.53,4.15-1.53,1.61,0,2.93.51,4.07,1.53,1,.9,1.6,1.97,1.88,3.22h-11.97Z"/><path class="cls-5" d="M111.57,46.54c-1.55,0-2.94.35-4.14,1.07-.73.43-1.35.95-1.89,1.54v-2.29h-4.02v19.89h4.02v-10.16c0-1.86.53-3.33,1.57-4.5,1.05-1.17,2.31-1.74,3.93-1.74,1.44,0,2.59.46,3.56,1.39.94.91,1.43,2.2,1.44,3.99v11.01h4.02v-11.94c0-2.46-.84-4.52-2.52-6.02-1.65-1.49-3.67-2.25-5.97-2.25Z"/><path class="cls-5" d="M139.55,40.8v8.58c-.63-.69-1.36-1.29-2.21-1.76-1.3-.72-2.74-1.08-4.29-1.08-2.76,0-5.16,1.01-7.08,3-1.93,1.98-2.91,4.44-2.9,7.26,0,2.78.98,5.22,2.92,7.23,1.93,2.01,4.32,3.05,7.06,3.04,1.55,0,2.99-.37,4.29-1.1.84-.47,1.57-1.07,2.2-1.75v2.53h4.02v-25.95h-4.02ZM137.84,61.38c-1.28,1.29-2.75,1.91-4.53,1.92-1.81,0-3.27-.62-4.51-1.9-1.23-1.29-1.84-2.78-1.84-4.59,0-1.84.61-3.34,1.86-4.61,1.25-1.27,2.71-1.88,4.5-1.88,1.81,0,3.29.62,4.55,1.9,1.26,1.29,1.87,2.78,1.87,4.59,0,1.78-.62,3.27-1.89,4.57Z"/><path class="cls-5" d="M59.31,42.9h-4.02v3.25c0,.39-.32.71-.71.71h-1.86c-.77,0-1.39.62-1.39,1.39v18.5h4.02v-19.12c0-.39.32-.71.71-.71h1.83c.79,0,1.43-.64,1.43-1.43v-2.6Z"/></svg>